# xmcd
#
# Track frame offsets: 
#        150
#        12610
#        24018
#        36640
#        47224
#        63225
#        73800
#        86397
#        96016
#        108600
#        121569
#        133527
#        146112
#        160977
#        175433
#        199204
#        213911
#        228026
#        244226
#        278625
#        297545
#        314260
#
# Disc length: 4474 seconds
#
# Revision: 2
# Processed by: cddbd v1.5.2PL0 Copyright (c) Steve Scherf et al.
# Submitted via: ExactAudioCopy v0.99pb3
#
DISCID=43117816
DTITLE=James Brown - Gold - Greatest Hits
DYEAR=2004
DGENRE=Soul
TTITLE0=Please Please Please
TTITLE1=Try Me
TTITLE2=Think
TTITLE3=Good Good Lovin'
TTITLE4=Night Train
TTITLE5=Out of Sight
TTITLE6=I Got You (I Feel Good)
TTITLE7=Papa's Got a Brand New Bag, Pt. 1
TTITLE8=It's a Man's Man's Man's World
TTITLE9=Cold Sweat
TTITLE10=I Got the Feelin'
TTITLE11=Say It Loud - I'm Black and I'm Proud, Pt. 1
TTITLE12=Mother Popcorn, Pt. 1
TTITLE13=Give It Up or Turnit a Loose
TTITLE14=Get Up (I Feel Like Being a) Sex Machine
TTITLE15=Make It Funky, Pt. 1
TTITLE16=Hot Pants, Pt. 1
TTITLE17=Get on the Good Foot, Pt. 1
TTITLE18=The Payback
TTITLE19=Get Up Offa That Thing
TTITLE20=Unity, Pt. 1: The Third Coming
TTITLE21=Living in America
EXTD=
EXTT0=
EXTT1=
EXTT2=
EXTT3=
EXTT4=
EXTT5=
EXTT6=
EXTT7=
EXTT8=
EXTT9=
EXTT10=
EXTT11=
EXTT12=
EXTT13=
EXTT14=
EXTT15=
EXTT16=
EXTT17=
EXTT18=
EXTT19=
EXTT20=
EXTT21=
PLAYORDER=
